<svg width="105" height="18" viewBox="0 0 105 18" fill="none" xmlns="http://www.w3.org/2000/svg">
<path d="M104.999 5.66195C104.325 5.94721 103.61 6.13455 102.878 6.21778C103.65 5.77636 104.227 5.08164 104.503 4.26309C103.779 4.67531 102.985 4.96421 102.157 5.12048C101.602 4.55163 100.865 4.17436 100.062 4.04733C99.2589 3.92031 98.4345 4.05063 97.7169 4.41806C96.9992 4.78548 96.4286 5.36941 96.0937 6.07907C95.7588 6.78873 95.6783 7.58436 95.8649 8.34226C94.3965 8.27186 92.96 7.90683 91.6486 7.27087C90.3372 6.63491 89.1804 5.74224 88.253 4.65082C87.9248 5.19013 87.7523 5.80321 87.7532 6.42727C87.7532 7.65212 88.4049 8.73422 89.3957 9.36776C88.8094 9.3501 88.2359 9.19863 87.7232 8.92597V8.96989C87.7234 9.78564 88.0185 10.5762 88.5584 11.2076C89.0984 11.839 89.85 12.2723 90.6858 12.4341C90.1415 12.5752 89.5708 12.596 89.0169 12.4949C89.2525 13.1971 89.7118 13.8112 90.3305 14.2512C90.9491 14.6912 91.6961 14.9352 92.4669 14.9489C91.7009 15.5244 90.8237 15.9498 89.8857 16.2009C88.9476 16.4519 87.967 16.5236 87 16.4119C88.6881 17.4504 90.6532 18.0018 92.6603 18C99.4536 18 103.169 12.6166 103.169 7.94778C103.169 7.79573 103.164 7.64199 103.157 7.49163C103.88 6.99169 104.504 6.37238 105 5.6628L104.999 5.66195Z" fill="#FCFCFC"/>
<path d="M50.3998 8.99035C50.3998 10.3158 49.3253 11.3903 47.9998 11.3903C46.6743 11.3903 45.5998 10.3158 45.5998 8.99035C45.5998 7.66487 46.6743 6.59035 47.9998 6.59035C49.3253 6.59035 50.3998 7.66487 50.3998 8.99035Z" fill="#FCFCFC"/>
<path fill-rule="evenodd" clip-rule="evenodd" d="M39 4.2C39 1.8804 40.8804 0 43.2 0H52.8C55.1196 0 57 1.8804 57 4.2V13.8C57 16.1196 55.1196 18 52.8 18H43.2C40.8804 18 39 16.1196 39 13.8V4.2ZM53.8391 4.20003C53.8391 4.86278 53.3019 5.40003 52.6391 5.40003C51.9764 5.40003 51.4391 4.86278 51.4391 4.20003C51.4391 3.53729 51.9764 3.00003 52.6391 3.00003C53.3019 3.00003 53.8391 3.53729 53.8391 4.20003ZM52.4998 8.99035C52.4998 11.4756 50.4851 13.4903 47.9998 13.4903C45.5145 13.4903 43.4998 11.4756 43.4998 8.99035C43.4998 6.50507 45.5145 4.49035 47.9998 4.49035C50.4851 4.49035 52.4998 6.50507 52.4998 8.99035Z" fill="#FCFCFC"/>
<path d="M6.68659 3.42677H9V0H6.28053V0.0123584C2.98542 0.129385 2.31008 1.98674 2.25055 3.93751H2.24378V5.64867H0V9.00451H2.24378V18H5.62528V9.00451H8.39528L8.93037 5.64867H5.62639V4.61483C5.62639 3.95555 6.06388 3.42677 6.68659 3.42677Z" fill="#FCFCFC"/>
</svg>
